{
	"asset":{
		"version":"2.0",
		"generator":"Created using the official Cinema 4D glTF Exporter 1.000x290161"
	},
	"scenes":[{
		"nodes":[0]
	}],
	"nodes":[{
		"name":"Torus",
		"mesh":0
	}],
	"meshes":[{
		"primitives":[{
			"attributes":{
				"POSITION":1,
				"NORMAL":2,
				"TEXCOORD_0":3
			},
			"indices":0,
			"material":0
		}]
	}],
	"accessors":[{
		"bufferView":0,
		"type":"SCALAR",
		"componentType":5123,
		"count":960,
		"byteOffset":0,
		"min":[0],
		"max":[186]
	},
	{
		"bufferView":1,
		"type":"VEC3",
		"componentType":5126,
		"count":187,
		"byteOffset":0,
		"min":[-27.5,
		-26.154054641723634,
		-2.5],
		"max":[27.5,
		26.154054641723634,
		2.5]
	},
	{
		"bufferView":1,
		"type":"VEC3",
		"componentType":5126,
		"count":187,
		"byteOffset":12,
		"min":[-1.0,
		-0.9510565400123596,
		-0.9997681379318237],
		"max":[1.0,
		0.9510565400123596,
		0.9997681379318237]
	},
	{
		"bufferView":1,
		"type":"VEC2",
		"componentType":5126,
		"count":187,
		"byteOffset":24,
		"min":[0.0,
		0.0],
		"max":[1.0,
		1.0]
	}],
	"materials":[{
		"pbrMetallicRoughness":{
			"baseColorFactor":[0.3003,
			0.6369183333333333,
			0.77,
			1.0],
			"metallicFactor":0.0,
			"roughnessFactor":0.5
		},
		"emissiveFactor":[0.0,
		0.0,
		0.0],
		"alphaMode":"OPAQUE",
		"doubleSided":false,
		"name":"Bid"
	}],
	"bufferViews":[{
		"buffer":0,
		"byteOffset":0,
		"byteLength":1920,
		"target":34963
	},
	{
		"buffer":0,
		"byteOffset":1920,
		"byteLength":5984,
		"target":34962,
		"byteStride":32
	}],
	"buffers":[{
		"uri":"data:application/octet-stream;base64,",
		"byteLength":7904
	}]
}